<?xml version="1.0" encoding="utf-8"?>
<!-- Generator: Adobe Illustrator 24.0.3, SVG Export Plug-In . SVG Version: 6.00 Build 0)  -->
<svg version="1.1" id="Layer_1" xmlns="http://www.w3.org/2000/svg" xmlns:xlink="http://www.w3.org/1999/xlink" x="0px" y="0px"
	 viewBox="0 0 566.9 141.7" style="enable-background:new 0 0 566.9 141.7;" xml:space="preserve">
<style type="text/css">
	.st0{fill:#404040;}
	.st1{fill:#F05A23;}
</style>
<path class="st0" d="M237.8,36.3c-16.2,0-29.4,13.2-29.4,29.4c0,16.1,13.1,29.3,29.3,29.4h0.1c16.3,0,29.2-12.9,29.5-29.3
	C267.3,49.6,254,36.4,237.8,36.3z M237.9,81.9c-8.9,0-15.8-7.1-15.9-16.1c0-8.9,7-16.1,15.7-16.2l0.2,0h0c8.8,0,15.7,7.1,15.7,16.2
	C253.6,74.9,246.9,81.9,237.9,81.9z"/>
<path class="st0" d="M186.3,94.1h13.9V37.4l-27.7,19.2l-0.3,0.2l-0.3-0.2l-27.5-19.2v56.7h13.9V64v-1l0.8,0.6l13.1,9.6l13.2-9.6
	l0.8-0.6v1V94.1z"/>
<path class="st0" d="M327.1,94.1V37.5H313v25.8l-37.4-26v56.6h14.1V66.9L327.1,94.1z"/>
<path class="st0" d="M334.3,107.2l10.1-7.4c0.9-0.7,1.6-1.6,2-2.5c0.4-0.9,0.6-2,0.6-3.3V50.8h-9.4V37.5h22.7v56.4
	c0,3.7-0.6,6.8-1.7,9.2c-1.1,2.4-3,4.7-5.6,6.8l-10.7,7.9L334.3,107.2z"/>
<path class="st0" d="M535,94.1l-3.3-7.6h-26l-3.1,7.6h-15.5l24.3-56.5h14.2l25,56.5H535z M510.5,74.8h16.2l-8.3-19.3L510.5,74.8z"/>
<path class="st0" d="M416.3,94.1l-3.3-7.6h-26l-3.1,7.6h-15.5l24.3-56.5H407l25,56.5H416.3z M391.8,74.8H408l-8.3-19.3L391.8,74.8z"
	/>
<path class="st0" d="M483.8,55.7c-0.4-11.4-11-19.1-24.2-19.1c-6.9,0.1-12.8,2.2-17.3,6.5c-4.6,4.3-6.9,9.7-6.9,15.9l0.2,4.6
	l34.2,11.6l0.4,0.1l-0.1,0.4c-0.4,2.2-1.7,4-3.7,5.2c-2,1.2-4.3,1.8-7.1,1.8c-2.4,0-4.7-0.7-6.9-2c-2.1-1.2-3.6-2.8-4.3-4.7
	L435.3,76c0.4,11.4,10.9,19.1,24,19.1c7.1,0,13-2.1,17.6-6.2c4.6-4.1,6.9-9.3,6.9-15.5c0-1.3-0.1-2.5-0.2-3.7
	c-0.1-1-0.2-1.8-0.3-2.4l-33.9-11.6l-0.4-0.1l0.1-0.4c0.3-1.9,1.5-3.5,3.6-4.8c2.1-1.3,4.4-1.9,7-1.9c2.7,0,5.1,0.7,7.3,2.2
	c2,1.4,3.4,3,4,5H483.8z"/>
<g>
	<path class="st1" d="M98,51.2l3.9-6.8L98,37.5H57.8c-6,0-9.2-3.7-10.4-4.7l-4.5-4.7c-1.6-1.4-4.9-4.2-10.2-4.2H16.3l3.9,6.8
		l-3.9,6.8h23.4c5.4,0,9.2,3.1,10.4,4.3l4.6,4.7c1.7,1.7,5.2,4.5,10.3,4.5H98z"/>
	<path class="st1" d="M98,59l-30.2,0c-5.7,0-9-3.5-10.2-4.5l-4.7-4.9c-1.1-1-4.5-4.3-10.3-4.3H16.3l3.9,6.8L16.3,59h33.4
		c5.4,0,9.1,3.1,10.2,4.2l4.8,4.9c1.2,1.2,4.8,4.5,10.2,4.5l23.1,0l3.9-6.8L98,59z"/>
	<path class="st1" d="M98,80.5H77.7c-5.9,0-9.1-3.6-10.3-4.6l-4.6-4.8c-1.1-1-4.5-4.3-10.3-4.3H16.3l3.9,6.8l-3.9,6.8h43.3
		c5.5,0,9.2,3.2,10.3,4.3l4.6,4.7c1.2,1.2,4.7,4.6,10.3,4.6H98l3.9-6.8L98,80.5z"/>
</g>
</svg>
