<svg width="199" height="39" viewBox="0 0 199 39" fill="none" xmlns="http://www.w3.org/2000/svg"><path d="M65.926 34.86c-6.22.264-12.356-2.526-15.248-8.38-.94-1.9-1.44-3.938-1.6-6.07-.266-3.508.62-6.652 2.658-9.435 1.363-1.862 3.226-3.388 5.25-4.454a17.587 17.587 0 0 1 14.467-.874c5.477 2.077 9.674 6.913 9.863 13.055.2 6.51-3.19 12.298-9.16 14.807-1.92.806-3.997 1.258-6.23 1.352zm7.346-14.023c.23-1.303.205-2.637-.25-3.87-.515-1.397-1.466-2.624-2.652-3.523-2.983-2.26-7.002-2.36-10.095-.213-2.065 1.435-3.432 3.745-3.326 6.33.142 3.488 2.256 6.58 5.53 7.68 4.818 1.618 9.886-1.3 10.792-6.403zM131.165 33.41c-5.803-2.556-9.088-8.194-8.933-14.586.135-5.637 3.593-10.223 8.486-12.582a17.6 17.6 0 0 1 13.995-.567c5.445 2.093 9.574 6.9 9.79 12.98.07 1.958-.208 4.03-.847 5.906-2.49 7.327-9.54 10.862-16.864 10.25-2.013-.167-3.89-.634-5.627-1.4zm-1.04-14.024c.034 1.648.51 3.277 1.408 4.64 2.518 3.822 7.662 4.774 11.42 2.27 2.312-1.54 3.67-4.27 3.65-7.104-.013-1.51-.544-2.96-1.45-4.152-2.376-3.135-6.58-4.184-10.142-2.666-2.76 1.178-4.952 3.852-4.885 7.012zM26.811 5.208l.003.008-8.43 14.437L7.93 19.64l8.392-14.403a.053.053 0 0 1 .048-.028l10.44-.002z" fill="#02528A"/><path d="M26.813 5.208h10.43c.02 0 .037.01.048.028l8.39 14.39-10.455.02-8.41-14.43-.003-.008z" fill="#00A59B"/><path d="M99.965 22.312l9.132 11.785a.017.017 0 0 1 .003.01c0 .003 0 .007-.002.01a.016.016 0 0 1-.007.008.018.018 0 0 1-.01.003h-9.413a.02.02 0 0 1-.016-.008L92.51 23.035a.042.042 0 0 0-.02-.017.04.04 0 0 0-.048.015.042.042 0 0 0-.008.025v11.04c0 .02-.01.03-.03.03h-7.537a.02.02 0 0 1-.02-.02V5.25a.02.02 0 0 1 .004-.013.017.017 0 0 1 .012-.005h11.654c.533 0 1.162.05 1.886.144 3.17.417 6.12 1.983 7.322 5.173.57 1.513.718 3.216.53 4.82-.418 3.548-2.77 6.32-6.28 6.914a.017.017 0 0 0-.013.02l.005.008zm-2.697-5.088c1.108-.854 1.378-2.45 1.01-3.758-.702-2.506-3.814-2.48-5.827-2.475a.02.02 0 0 0-.013.007.02.02 0 0 0-.005.014v7.153c0 .018.01.028.027.03 1.525.002 3.523.02 4.808-.97zM118.73 5.23h-7.562a.02.02 0 0 0-.02.022v28.856c0 .01.01.02.02.02h7.562c.01 0 .02-.01.02-.02V5.252a.02.02 0 0 0-.02-.02zM165.592 34.13h-7.535a.035.035 0 0 1-.024-.01.036.036 0 0 1-.01-.026V5.267c0-.01.004-.018.01-.025a.035.035 0 0 1 .024-.01h7.548c.005 0 .01.002.014.004a.03.03 0 0 1 .01.01L179.52 22.9a.03.03 0 0 0 .017.012.03.03 0 0 0 .02 0 .033.033 0 0 0 .023-.033V5.266c0-.01.003-.018.01-.025a.033.033 0 0 1 .024-.01h7.535c.008 0 .017.004.023.01.006.007.01.016.01.025v28.827c0 .01-.004.018-.01.025a.033.033 0 0 1-.024.01h-7.554c-.005 0-.01-.003-.015-.005a.035.035 0 0 1-.01-.01L165.686 16.43a.03.03 0 0 0-.017-.012.035.035 0 0 0-.022 0 .036.036 0 0 0-.016.014.036.036 0 0 0-.006.02v17.642c0 .01-.004.018-.01.025a.033.033 0 0 1-.024.01zM45.68 19.625c.004.003.008.007.01.012a.05.05 0 0 1 .004.058l-8.38 14.378a.055.055 0 0 1-.05.03h-10.42a.01.01 0 0 1-.004-.002.01.01 0 0 1-.003-.012l8.383-14.383c.013-.022.015-.042.006-.058l10.453-.022z" fill="#02528A"/><path d="M7.93 19.64l10.454.013 8.4 14.418a.022.022 0 0 1-.017.033H16.36a.04.04 0 0 1-.037-.022L7.93 19.64z" fill="#00A59B"/></svg>